<mxfile host="Electron" modified="2023-12-27T02:45:34.822Z" agent="Mozilla/5.0 (Windows NT 10.0; Win64; x64) AppleWebKit/537.36 (KHTML, like Gecko) draw.io/22.1.11 Chrome/114.0.5735.289 Electron/25.9.8 Safari/537.36" etag="8LRu-T2TCzdVku2HxPd6" version="22.1.11" type="device">
  <diagram name="第 1 页" id="PzsqKFFZ3GVAJ78HyTYN">
    <mxGraphModel dx="863" dy="525" grid="1" gridSize="10" guides="1" tooltips="1" connect="1" arrows="1" fold="1" page="1" pageScale="1" pageWidth="827" pageHeight="1169" math="0" shadow="0">
      <root>
        <mxCell id="0" />
        <mxCell id="1" parent="0" />
        <mxCell id="8dptAZ4Zhj5n9AGJJx0Y-1" value="&lt;font style=&quot;font-size: 13px;&quot;&gt;&lt;b&gt;营业员&lt;/b&gt;&lt;/font&gt;" style="rounded=0;whiteSpace=wrap;html=1;" parent="1" vertex="1">
          <mxGeometry x="40" y="160" width="120" height="40" as="geometry" />
        </mxCell>
        <mxCell id="8dptAZ4Zhj5n9AGJJx0Y-2" value="&lt;font style=&quot;font-size: 13px;&quot;&gt;&lt;b&gt;用户&lt;/b&gt;&lt;/font&gt;" style="rounded=0;whiteSpace=wrap;html=1;" parent="1" vertex="1">
          <mxGeometry x="377.5" y="320" width="120" height="40" as="geometry" />
        </mxCell>
        <mxCell id="8dptAZ4Zhj5n9AGJJx0Y-3" value="&lt;b&gt;&lt;font style=&quot;font-size: 13px;&quot;&gt;申请退票&lt;/font&gt;&lt;/b&gt;" style="rhombus;whiteSpace=wrap;html=1;" parent="1" vertex="1">
          <mxGeometry x="365" y="230" width="145" height="50" as="geometry" />
        </mxCell>
        <mxCell id="8dptAZ4Zhj5n9AGJJx0Y-5" value="&lt;span style=&quot;font-size: 13px;&quot;&gt;&lt;b&gt;订单&lt;/b&gt;&lt;/span&gt;" style="rounded=0;whiteSpace=wrap;html=1;" parent="1" vertex="1">
          <mxGeometry x="377.5" y="160" width="120" height="40" as="geometry" />
        </mxCell>
        <mxCell id="8dptAZ4Zhj5n9AGJJx0Y-7" value="&lt;font style=&quot;font-size: 13px;&quot;&gt;&lt;b&gt;订单管理&lt;/b&gt;&lt;/font&gt;" style="rhombus;whiteSpace=wrap;html=1;" parent="1" vertex="1">
          <mxGeometry x="200" y="155" width="140" height="50" as="geometry" />
        </mxCell>
        <mxCell id="8dptAZ4Zhj5n9AGJJx0Y-9" value="" style="endArrow=none;html=1;rounded=0;entryX=0.5;entryY=1;entryDx=0;entryDy=0;" parent="1" source="8dptAZ4Zhj5n9AGJJx0Y-2" target="8dptAZ4Zhj5n9AGJJx0Y-3" edge="1">
          <mxGeometry width="50" height="50" relative="1" as="geometry">
            <mxPoint x="390" y="400" as="sourcePoint" />
            <mxPoint x="440" y="350" as="targetPoint" />
          </mxGeometry>
        </mxCell>
        <mxCell id="8dptAZ4Zhj5n9AGJJx0Y-10" value="" style="endArrow=none;html=1;rounded=0;entryX=0.5;entryY=1;entryDx=0;entryDy=0;exitX=0.5;exitY=0;exitDx=0;exitDy=0;" parent="1" source="8dptAZ4Zhj5n9AGJJx0Y-3" target="8dptAZ4Zhj5n9AGJJx0Y-5" edge="1">
          <mxGeometry width="50" height="50" relative="1" as="geometry">
            <mxPoint x="390" y="400" as="sourcePoint" />
            <mxPoint x="440" y="350" as="targetPoint" />
          </mxGeometry>
        </mxCell>
        <mxCell id="8dptAZ4Zhj5n9AGJJx0Y-12" value="" style="endArrow=none;html=1;rounded=0;entryX=1;entryY=0.5;entryDx=0;entryDy=0;exitX=0;exitY=0.5;exitDx=0;exitDy=0;" parent="1" source="8dptAZ4Zhj5n9AGJJx0Y-5" target="8dptAZ4Zhj5n9AGJJx0Y-7" edge="1">
          <mxGeometry width="50" height="50" relative="1" as="geometry">
            <mxPoint x="390" y="400" as="sourcePoint" />
            <mxPoint x="440" y="350" as="targetPoint" />
          </mxGeometry>
        </mxCell>
        <mxCell id="8dptAZ4Zhj5n9AGJJx0Y-13" value="" style="endArrow=none;html=1;rounded=0;entryX=1;entryY=0.5;entryDx=0;entryDy=0;exitX=0;exitY=0.5;exitDx=0;exitDy=0;" parent="1" source="8dptAZ4Zhj5n9AGJJx0Y-7" target="8dptAZ4Zhj5n9AGJJx0Y-1" edge="1">
          <mxGeometry width="50" height="50" relative="1" as="geometry">
            <mxPoint x="390" y="400" as="sourcePoint" />
            <mxPoint x="440" y="350" as="targetPoint" />
          </mxGeometry>
        </mxCell>
        <mxCell id="8dptAZ4Zhj5n9AGJJx0Y-14" value="&lt;font style=&quot;font-size: 13px;&quot;&gt;M&lt;/font&gt;" style="text;html=1;strokeColor=none;fillColor=none;align=center;verticalAlign=middle;whiteSpace=wrap;rounded=0;" parent="1" vertex="1">
          <mxGeometry x="150" y="155" width="60" height="30" as="geometry" />
        </mxCell>
        <mxCell id="8dptAZ4Zhj5n9AGJJx0Y-16" value="&lt;font style=&quot;font-size: 13px;&quot;&gt;N&lt;/font&gt;" style="text;html=1;strokeColor=none;fillColor=none;align=center;verticalAlign=middle;whiteSpace=wrap;rounded=0;" parent="1" vertex="1">
          <mxGeometry x="320" y="150" width="60" height="30" as="geometry" />
        </mxCell>
        <mxCell id="8dptAZ4Zhj5n9AGJJx0Y-18" value="&lt;font style=&quot;font-size: 13px;&quot;&gt;N&lt;/font&gt;" style="text;html=1;strokeColor=none;fillColor=none;align=center;verticalAlign=middle;whiteSpace=wrap;rounded=0;" parent="1" vertex="1">
          <mxGeometry x="420" y="205" width="60" height="30" as="geometry" />
        </mxCell>
        <mxCell id="8dptAZ4Zhj5n9AGJJx0Y-19" value="P" style="text;html=1;strokeColor=none;fillColor=none;align=center;verticalAlign=middle;whiteSpace=wrap;rounded=0;" parent="1" vertex="1">
          <mxGeometry x="420" y="290" width="60" height="30" as="geometry" />
        </mxCell>
      </root>
    </mxGraphModel>
  </diagram>
</mxfile>
